<?xml version="1.0" encoding="UTF-8" standalone="no"?>
<svg width="91px" height="20px" viewBox="0 0 91 20" version="1.1" xmlns="http://www.w3.org/2000/svg" xmlns:xlink="http://www.w3.org/1999/xlink">
    <!-- Generator: sketchtool 3.8.3 (29802) - http://www.bohemiancoding.com/sketch -->
    <title>7F443E97-FC93-43AB-B35D-8B5F4497E415</title>
    <desc>Created with sketchtool.</desc>
    <defs></defs>
    <g id="Page-1" stroke="none" stroke-width="1" fill="none" fill-rule="evenodd">
        <g id="P0--Desktop-Salutrib-TOC" transform="translate(-151.000000, -15.000000)">
            <g id="Medscape-Logo" transform="translate(151.000000, 15.000000)">
                <g id="Page-1">
                    <g>
                        <g id="NP-Home---specs">
                            <g id="Group">
                                <g id="Medscape-Logo">
                                    <path d="M58.550065,11.8945455 L58.5510025,11.8945455 C58.5625641,11.6139394 58.4650713,11.4660606 58.2300886,11.4812121 C58.2032155,11.4818182 58.1800922,11.4887879 58.1585313,11.4969697 C57.9847941,11.5378788 57.912612,11.79 57.8676153,11.9087879 L57.8704275,11.9087879 C57.8529288,11.9590909 57.8391799,12.0087879 57.829493,12.0460606 L57.8257433,12.0460606 L57.8076197,12.0981818 C57.1951648,13.880303 55.792768,15.029697 54.318814,14.9563637 C53.0804677,14.8854545 52.2505287,14.4193939 51.853058,13.5709091 C51.8305597,13.5206061 51.3168475,12.3348485 51.3168475,10.5933333 C51.3168475,6.97484847 52.1436616,5.62848485 54.3678729,5.62848485 C55.0003263,5.62848485 56.4845921,5.92666667 56.4845921,6.50575757 C56.4845921,6.56666667 56.3933488,6.63636363 56.2867941,6.72242427 C56.0352501,6.91757573 55.6584029,7.20848487 55.6584029,7.8842424 C55.6584029,8.62333333 56.1902387,9.13848487 56.9520577,9.13848487 C57.7576234,9.13848487 58.1916539,8.4139394 58.1916539,7.73454547 C58.1916539,5.71151515 55.7205858,4.97878788 54.0563333,4.97878788 C52.6951835,4.97878788 48.8079696,6.00848485 48.8079696,10.5933333 C48.8079696,11.9966667 49.7597746,15.6330303 54.1069546,15.6330303 C57.0051787,15.5236363 57.9763573,13.7124243 58.4994437,12.1475757 L58.5322539,12.0463637 L58.5275667,12.0463637 C58.5422531,11.9930303 58.550065,11.94 58.550065,11.8945455" id="Fill-1" fill="#020202"></path>
                                    <path d="M90.5614583,11.9124243 L90.5645831,11.9124243 C90.5761447,11.62 90.4736527,11.4660606 90.230858,11.4812121 C90.2046098,11.4818182 90.1783617,11.4887879 90.1558633,11.5 C89.9790014,11.5409091 89.9043192,11.8006061 89.8586981,11.9230303 L89.8618229,11.9230303 C89.8452615,11.9609091 89.8349497,12 89.8277628,12.0306061 L89.8227631,12.0306061 L89.8080766,12.0921212 C89.4406039,13.7706061 87.673859,14.9412121 86.3158339,14.9412121 C83.7441478,14.9412121 83.2404354,13.3242424 83.2404354,10.5318182 L83.2404354,9.57696967 L89.9227554,9.57696967 C90.2296081,9.57696967 90.6245788,9.6557576 90.51115,8.84363633 C90.1833613,6.53030303 88.3544333,4.96121212 85.8252449,4.96121212 C82.5882952,4.96121212 80.6528129,7.879697 80.6528129,10.7030303 C80.6528129,13.6436363 83.3669882,15.6184849 85.9021138,15.6184849 C88.3481837,15.6184849 90.0358724,14.3436363 90.5270864,12.1248485 L90.547085,12.0306061 L90.54646,12.0306061 C90.5567711,11.990303 90.5614583,11.9460606 90.5614583,11.9124243 M83.5197893,7.1418182 C83.5907218,6.90242427 84.3009821,5.61575757 85.7480628,5.61575757 C86.7970479,5.61575757 88.0475813,6.01515151 88.0475813,7.92151513 L88.0475813,8.69696967 L83.271995,8.69696967 C83.3057426,8.0621212 83.384487,7.53515153 83.5197893,7.1418182" id="Fill-2" fill="#020202"></path>
                                    <path d="M69.4145779,13.3787879 C69.3852049,13.0875757 69.3011484,12.9890909 69.0917888,13.0187879 C68.9161769,13.0469697 68.8593059,13.3045455 68.8268089,13.4212121 L68.8286837,13.4212121 L68.8152472,13.4657576 C68.600263,14.19 68.3280954,14.5406061 67.9871826,14.5406061 C67.5434653,14.5406061 67.5215918,14.260303 67.5215918,13.4648485 L67.5215918,7.49484847 C67.5215918,6.48636363 67.5215918,4.96121212 63.9271692,4.96121212 C60.8558328,4.96121212 59.711542,6.48363637 59.711542,7.44636367 C59.711542,8.22121213 60.1693208,8.7239394 60.8767688,8.7239394 C61.5582811,8.7239394 62.0166848,8.27090907 62.0166848,7.5942424 C62.0166848,7.00303033 61.6326506,6.73939393 61.4045424,6.58151515 C61.3376723,6.53727273 61.2404919,6.46848485 61.2404919,6.44181818 C61.2404919,5.81121212 62.9453665,5.61545455 63.5668832,5.61545455 C64.1024688,5.61545455 65.3495645,5.75575757 65.3495645,7.06848487 L65.3495645,9.3778788 C61.3045498,9.39636367 58.937849,10.7430303 58.8587923,13.0836363 C58.8587923,14.7166667 59.963086,15.6178788 61.9638762,15.6178788 C63.3643982,15.6178788 64.5805586,15.09 65.417372,14.1518182 C65.6470426,15.09 66.2435612,15.6178788 67.1331831,15.6178788 C68.3505938,15.6178788 69.3267716,14.7024243 69.4077033,13.4924243 L69.4148903,13.410303 L69.4148903,13.3787879 L69.4145779,13.3787879 L69.4145779,13.3787879 L69.4145779,13.3787879 Z M65.349252,12.3087879 C65.349252,13.2687879 65.043337,13.5563637 64.8421019,13.7457576 L64.8036672,13.7842424 C64.1983992,14.2981818 63.672188,14.4921212 62.8684971,14.4921212 C61.7042079,14.4921212 60.9545755,13.7427273 60.9545755,12.5845455 C60.9545755,10.9639394 62.4372788,10.1157576 65.349252,10.0566667 L65.349252,12.3087879 L65.349252,12.3087879 L65.349252,12.3087879 Z" id="Fill-3" fill="#020202"></path>
                                    <path d="M48.2451986,12.1093939 C48.2451986,10.4190909 47.4486947,9.57090907 45.4963385,9.17636367 C41.5691275,8.4042424 41.3941404,8.04545453 41.3941404,7.37 C41.3941404,7.20272727 41.4997576,6.62848485 41.9665983,6.18757576 C42.3875048,5.78969697 42.9843358,5.59818182 43.7442799,5.61575757 C45.4835269,5.70030303 46.1965994,7.02060607 46.4884529,8.11515153 C46.4884529,8.11515153 46.4953274,8.1357576 46.5031393,8.1721212 C46.5796962,8.56696967 47.2121496,8.59666667 47.2121496,8.1721212 L47.2121496,5.33060606 L47.20715,5.33060606 C47.2027753,5.15060606 47.1227812,5.05727273 46.9590433,5.03636363 C46.9452943,5.03454545 46.9349825,5.03818182 46.9224834,5.03818182 C46.9190462,5.03818182 46.9171714,5.03818182 46.9159215,5.03636363 C46.738122,5.01848485 46.6184433,5.25121212 46.5543856,5.35727273 C46.4390815,5.5230303 46.2565949,5.78969697 46.2084735,5.86181818 C45.427281,5.26727273 44.6273399,4.96121212 43.8255239,4.96121212 C41.0085438,4.96121212 40.2551617,6.9481818 40.2551617,8.12242427 C40.2551617,10.2475757 41.6463093,10.57 43.2555659,10.9436363 L43.5217963,11.0048485 C45.5107124,11.4906061 47.0318504,11.9384849 47.0318504,12.8872727 C47.0318504,13.3448485 46.8484264,13.750303 46.5634474,14.0806061 L46.5621975,14.0793939 L46.5172008,14.1272727 C46.0281743,14.6345455 45.2791669,14.9545455 44.565782,14.9545455 C42.7796634,14.9545455 41.3897657,13.7657576 40.8498055,11.7745455 L40.8360565,11.7212121 L40.8313693,11.7227273 C40.7985593,11.6045455 40.747313,11.3524243 40.5713885,11.3251515 C40.529829,11.32 40.4992063,11.3224243 40.4751455,11.3284849 C40.3120326,11.3330303 40.2482872,11.4612121 40.2229766,11.7272727 L40.224539,11.7272727 C40.2029781,11.8433333 40.21079,11.8881818 40.21079,11.8881818 L40.21079,15.1315151 L40.2132898,15.1333333 C40.2057904,15.4184849 40.2698481,15.5524243 40.4910818,15.5581818 C40.6210723,15.5642424 40.7438758,15.3775757 40.8066836,15.2551515 C40.8854279,15.130303 41.2857109,14.4957576 41.3547683,14.3845455 C42.1115876,15.1515151 43.2377547,15.6127273 44.4029814,15.6127273 C45.4916513,15.6127273 46.4815784,15.2636363 47.1924636,14.6290909 L47.2455847,14.5712121 L47.2449597,14.5712121 C47.8758508,13.9542424 48.2451986,13.1078788 48.2451986,12.1093939 M40.8079335,11.7269697 L40.8179328,11.7269697 L40.8069961,11.7269697 L40.8079335,11.7269697" id="Fill-4" fill="#020202"></path>
                                    <path d="M18.5648834,14.8212121 C18.0896059,14.6615151 17.7293199,14.1163637 17.7196331,13.8393939 C17.7093214,13.5593939 17.4196552,1.23484849 17.4196552,1.23484849 C17.4065312,0.598484849 17.4362165,0.133333333 17.259667,0.0706060607 C17.0465577,-0.006969697 16.1494362,0.0103030303 15.9122662,0.0103030303 C15.3382459,0.0103030303 14.9148396,-0.00454545455 14.8104723,0.114545455 C14.6998554,0.238787879 14.4920582,0.679090907 14.2577005,1.27757576 L13.095286,3.7869697 C12.7946832,4.35818182 12.2819084,5.32363637 11.9791182,5.89090909 L10.2151855,9.20484847 C9.9130203,9.7742424 9.40961987,9.77909093 9.09370561,9.220303 L7.25102874,5.94030303 C6.93636439,5.38181818 6.42171478,4.46272727 6.10548807,3.90090909 L4.81370816,1.25424243 C4.55216491,0.66878788 4.42654915,0.214242424 4.29812111,0.103636363 C4.18937911,0.01 3.72847554,0.01 3.07133642,0.0133333333 L1.52520023,0.0133333333 C0.756506814,0.0133333333 0.409969822,0.0209090909 0.460903572,0.336969697 C0.486214209,0.509393939 0.753069563,0.559090909 0.872435775,0.591212121 C1.34802577,0.720909093 1.52332537,1.28181818 1.52332537,1.5630303 C1.52332537,1.84060606 1.51301362,13.0690909 1.45739272,13.559697 C1.44926832,13.6439394 1.43270704,13.73 1.41395841,13.8166667 C1.40677144,13.8215151 1.39895952,13.8278788 1.39708466,13.839697 C1.30521642,14.3190909 1.02867428,14.6915151 0.551834379,14.8215151 C0.433718073,14.8539394 0.165925286,14.9033333 0.139989695,15.0736363 C0.0915557604,15.390303 0.445592199,15.4015151 1.21428561,15.4015151 L1.73268495,15.3990909 C1.7754943,15.4027273 1.81955356,15.4060606 1.86798749,15.4060606 C1.86798749,15.4060606 1.87173722,15.4024243 1.87829924,15.3990909 L2.48669195,15.3990909 L3.75816086,15.4015151 C4.52622931,15.4015151 4.8824531,15.390303 4.83308173,15.0736363 C4.80652118,14.9033333 4.53935335,14.8539394 4.42154952,14.8215151 C3.94533457,14.6912121 3.75097388,14.3993939 3.57692419,13.839697 C3.57598677,13.8369697 3.57504933,13.8348485 3.57504933,13.8321212 C3.49036806,13.4687879 3.45099596,12.98 3.45099596,12.98 C3.42568533,12.3415151 3.409749,11.2975757 3.41881084,10.6593939 L3.42037322,10.4639394 C3.42568533,9.82333333 3.44443395,8.78121213 3.45974532,8.14151513 L3.52099082,5.62727273 C3.53598971,4.98909091 3.80284507,4.92666667 4.11407215,5.48727273 L5.82582115,8.569697 C6.13798567,9.13242427 7.7784899,12.1412121 8.07096839,12.7118182 C8.32063753,13.1954545 8.37250866,13.3781818 9.14276451,13.3878788 C10.0020762,13.3987879 10.0020762,13.1651515 10.3583,12.4293939 C10.6176559,11.8878788 14.2867609,4.88484849 14.2867609,4.88484849 C14.5873637,4.31606061 14.8464071,4.37242424 14.8632809,5.01121212 C14.8632809,5.01121212 14.9095275,13.5515151 14.8479695,13.9333333 C14.8373453,13.9927273 14.8301583,14.0333333 14.8235963,14.06 C14.698293,14.43 14.4411245,14.71 14.0420914,14.8212121 C13.9233501,14.8536363 13.6580571,14.9030303 13.6286843,15.0733333 C13.5811877,15.39 13.9349117,15.4012121 14.7039176,15.4012121 L16.3028624,15.3987879 L17.0184347,15.3987879 L17.3909073,15.4012121 C17.4005941,15.4012121 17.4084061,15.4012121 17.4162179,15.3987879 L17.9018072,15.4012121 C18.672063,15.4012121 19.0254745,15.39 18.9770406,15.0733333 C18.9495426,14.9030303 18.6795624,14.860303 18.5648834,14.8212121" id="Fill-5" fill="#005B81"></path>
                                    <path d="M39.8070697,15.0821212 C39.7861338,14.9590909 39.6089593,14.9093939 39.4795938,14.869697 L39.4014746,14.849697 C39.0227525,14.7169697 38.6771529,14.2563637 38.5371632,13.9578788 C38.4862295,13.8212121 38.4615438,13.6154545 38.4521694,13.470303 C38.4412328,13.0660606 38.4181095,12.1042424 38.3899865,10.8833333 L38.3827996,0.909696967 C38.3806123,0.909696967 38.3827996,0.74939394 38.3827996,0.74757576 C38.3827996,0.00787878787 38.459044,0.0445454545 37.4997396,0.0160606061 L35.849861,0.0133333333 L35.8008021,0.0133333333 C35.1033534,0.0133333333 34.7796273,0.0218181818 34.8255614,0.311818182 C34.8496222,0.467575757 35.0911669,0.513636363 35.2002213,0.54 C35.7217455,0.6830303 35.9739144,1.14545455 35.9911006,1.71212121 L35.9823513,6.66606061 L35.9314175,6.66606061 C35.2258445,5.33969697 33.6512729,5.01939394 32.8213339,5.01939394 C29.7268742,5.01939394 27.98544,7.43939393 27.98544,10.2630303 C27.98544,10.3760606 27.9898146,10.4866667 27.9963766,10.5975757 C27.7751429,10.9760606 27.5426601,11.3345455 27.332363,11.5984849 C27.2261208,11.7339394 24.9922228,14.3672727 22.6314591,14.3672727 C21.5493512,14.3672727 20.7425356,13.7636363 20.7425356,12.6466667 C20.7425356,12.0624243 20.7865948,11.5618182 20.9250222,10.9793939 C23.3898407,10.7551515 27.793579,9.6539394 27.793579,6.61545455 C27.793579,5.38727273 26.5727314,5.02757576 25.5362452,5.02757576 C22.1952412,5.02757576 18.9014211,8.98242427 18.9014211,12.5587879 C18.9014211,14.0539394 19.6126188,15.5736363 21.7343376,15.5736363 C25.0181583,15.5736363 27.0658201,13.0112121 27.7526446,12.0390909 C27.848575,11.9030303 27.991377,11.6666667 28.1166803,11.4518182 C28.1835504,11.769697 28.2604197,12.0718182 28.2541701,12.050303 C28.8856862,14.1009091 30.5058794,15.5866667 32.5588533,15.5812121 C33.7622022,15.5781818 35.2842776,15.0657576 35.9551658,13.9524243 L36.006412,13.9524243 C36.006412,13.9524243 36.0532836,14.1845455 36.0532836,14.6933333 C36.0532836,15.3875757 36.0001625,15.38 36.7979162,15.38 L38.4277963,15.38 L38.4277963,15.3781818 L38.7249619,15.3781818 C39.2989821,15.3781818 39.6592681,15.3727273 39.7708224,15.2460606 C39.7983204,15.2175757 39.810507,15.1809091 39.810507,15.1318182 C39.8101945,15.1160606 39.8101945,15.1012121 39.8070697,15.0821212 L39.8070697,15.0821212 L39.8070697,15.0821212 Z M25.0050343,5.74181818 C25.6059276,5.74181818 25.9512147,6.12242424 25.9512147,6.70454547 C25.9512147,9.14151513 23.162045,10.2093939 21.0406387,10.3445455 C21.4112364,8.87090907 23.2317274,5.74181818 25.0050343,5.74181818 L25.0050343,5.74181818 L25.0050343,5.74181818 Z M34.7358805,14.3139394 C34.4015301,14.5878788 33.6409611,14.9772727 32.9956962,14.9772727 C30.9967808,14.9772727 30.4486961,13.88 30.4486961,9.8842424 C30.4486961,7.81484847 30.6343074,5.60121212 32.8647682,5.60121212 C34.3368474,5.60121212 35.3980193,6.51181818 35.849861,8.16696967 C36.0226608,8.72636367 36.0357848,10.0081818 36.0357848,10.389697 C36.0354723,12.97 35.7183082,13.4654545 34.7358805,14.3139394 L34.7358805,14.3139394 L34.7358805,14.3139394 Z" id="Fill-6" fill="#005B81"></path>
                                    <path d="M75.250086,4.96121212 C73.9617428,4.96121212 72.8099531,5.65424243 72.1228161,6.80303033 L72.1196914,6.11181818 C72.1153167,6.11181818 72.1196914,5.95030303 72.1196914,5.94939394 C72.1196914,5.20878788 72.1940604,5.24727273 71.2341316,5.21757576 L69.8626699,5.21575757 L69.8132984,5.21575757 C69.1158496,5.21575757 68.7914988,5.22515151 68.8374324,5.51272727 C68.8611808,5.66909091 69.103663,5.71454545 69.2114679,5.74181818 C69.7320541,5.88515151 69.985473,6.34818182 70.0017219,6.91545453 L70.0017219,7.199697 L70.000472,19.1224243 C70.007034,19.8906061 70.0317198,19.8481818 70.8188497,19.8481818 L72.3506119,19.8481818 C73.04806,19.8481818 73.3667868,19.8412121 73.3233524,19.5557576 C73.2971042,19.3978788 73.0583718,19.3539394 72.9499426,19.3254545 C72.4331054,19.1845455 72.1815613,18.7242424 72.1637501,18.1587879 C72.1637501,18.1587879 72.172187,15.1587879 72.1759367,14.0263637 C72.8655735,15.0881818 73.8323776,15.6184849 75.1475932,15.6184849 C78.387042,15.6184849 80.1369138,12.9842424 80.1369138,10.5042424 C80.1375381,6.4369697 77.2146288,4.96121212 75.250086,4.96121212 L75.250086,4.96121212 L75.250086,4.96121212 Z M74.9669817,14.9669697 C74.2414099,14.9669697 73.111493,14.3624243 72.683712,13.5515151 C72.2765546,12.8166667 72.1753118,12.4112121 72.1753118,10.7530303 L72.1740619,10.4463637 C72.171562,9.81515153 72.1674998,9.1642424 72.2746797,8.4578788 C72.634653,6.20878788 74.3954608,5.71515151 75.0429131,5.71515151 C76.9518355,5.71515151 77.6274108,6.9478788 77.6274108,10.4287879 C77.6280358,14.9669697 76.2143896,14.9669697 74.9669817,14.9669697 L74.9669817,14.9669697 L74.9669817,14.9669697 Z" id="Fill-7" fill="#020202"></path>
                                </g>
                            </g>
                        </g>
                    </g>
                </g>
            </g>
        </g>
    </g>
</svg>