<?xml version="1.0" encoding="UTF-8" standalone="no"?>
<svg width="17px" height="18px" viewBox="0 0 17 18" version="1.1" xmlns="http://www.w3.org/2000/svg" xmlns:xlink="http://www.w3.org/1999/xlink">
    <!-- Generator: sketchtool 3.6.1 (26313) - http://www.bohemiancoding.com/sketch -->
    <title>4738433D-6121-4C15-A39C-EDAB9EBDC1BC</title>
    <desc>Created with sketchtool.</desc>
    <defs></defs>
    <g id="Page-1" stroke="none" stroke-width="1" fill="none" fill-rule="evenodd">
        <g id="PlayerControls-Copy" transform="translate(-486.000000, -593.000000)" fill="#005B81">
            <g id="ExitFullScreen" transform="translate(486.000000, 593.000000)">
                <path d="M0,11.0102572 L0.000694789082,18 L7,17.9993063 L7,17.1869811 L1.39027295,17.1869811 L6.99999975,11.5750791 L6.42401961,11 L0.814292804,16.6125957 L0.814292804,11.0102572 L0,11.0102572 Z" id="Fill-16" transform="translate(3.500000, 14.500000) scale(-1, -1) translate(-3.500000, -14.500000) "></path>
                <path d="M10,11.0102572 L10.0006948,18 L17,17.9993063 L17,17.1869811 L11.390273,17.1869811 L16.9999998,11.5750791 L16.4240196,11 L10.8142928,16.6125957 L10.8142928,11.0102572 L10,11.0102572 Z" id="Fill-16" transform="translate(13.500000, 14.500000) scale(1, -1) translate(-13.500000, -14.500000) "></path>
                <path d="M0,0.0102572186 L0.000694789082,7 L7,6.9993063 L7,6.18698109 L1.39027295,6.18698109 L6.99999975,0.575079076 L6.42401961,1.26783228e-13 L0.814292804,5.61259572 L0.814292804,0.0102572186 L0,0.0102572186 Z" id="Fill-16" transform="translate(3.500000, 3.500000) scale(-1, 1) translate(-3.500000, -3.500000) "></path>
                <path d="M10,0.0102572186 L10.0006948,7 L17,6.9993063 L17,6.18698109 L11.390273,6.18698109 L16.9999998,0.575079076 L16.4240196,1.26783228e-13 L10.8142928,5.61259572 L10.8142928,0.0102572186 L10,0.0102572186 Z" id="Fill-16"></path>
            </g>
        </g>
    </g>
</svg>
