<?xml version="1.0" encoding="UTF-8" standalone="no"?>
<svg width="17px" height="11px" viewBox="0 0 17 11" version="1.1" xmlns="http://www.w3.org/2000/svg" xmlns:xlink="http://www.w3.org/1999/xlink">
    <!-- Generator: sketchtool 3.7 (28169) - http://www.bohemiancoding.com/sketch -->
    <title>47A5697D-C45D-410D-9679-5475746097C3</title>
    <desc>Created with sketchtool.</desc>
    <defs></defs>
    <g id="Page-1" stroke="none" stroke-width="1" fill="none" fill-rule="evenodd">
        <g id="Buttons" transform="translate(-123.000000, -996.000000)" fill="#CE3636">
            <g id="Group-2" transform="translate(115.000000, 954.000000)">
                <g id="GooglePlus" transform="translate(8.000000, 42.000000)">
                    <path d="M0.00328913043,5.23443077 C-0.101482609,2.53914164 2.31713696,0.0485740053 5.08074565,0.0161071618 C6.48952826,-0.101134218 7.85987609,0.432764987 8.92607174,1.30377825 C8.48887609,1.77292414 8.04391957,2.2372 7.56847391,2.67135385 C6.63014783,2.11490822 5.50020217,1.6906748 4.40333261,2.06747056 C2.63403913,2.55916286 1.56285435,4.59808064 2.21735435,6.2876191 C2.75932174,8.05201167 4.95805,9.02024509 6.68133261,8.2790992 C7.57364783,7.96705676 8.16162609,7.16350239 8.41976739,6.30006472 C7.39718043,6.2800435 6.3744087,6.29248912 5.35182174,6.26507268 C5.34923478,5.67110981 5.34664783,5.07967215 5.34923478,4.48570928 C7.05459348,4.48318408 8.76235435,4.47831406 10.4703,4.49328488 C10.5750717,5.94816021 10.3551804,7.50548647 9.38618043,8.67339098 C8.05925652,10.3405634 5.60756087,10.8295501 3.61320217,10.175704 C1.49633261,9.49696658 -0.0427217391,7.41566154 0.00328913043,5.23443077" id="Fill-1"></path>
                    <path d="M13.7939109,2.98837454 L15.3150413,2.98837454 C15.3176283,3.48493687 15.3228022,3.98420477 15.3253891,4.48076711 C15.8340957,4.48581751 16.3453891,4.48816233 16.8542804,4.49068753 L16.8542804,5.97821008 C16.3453891,5.98055491 15.8340957,5.98308011 15.3253891,5.98560531 C15.3202152,6.48469284 15.3176283,6.98143554 15.3150413,7.48052308 C14.8063348,7.47799788 14.2976283,7.48052308 13.7913239,7.48052308 C13.78615,6.98143554 13.78615,6.48469284 13.7811609,5.9881305 C13.2722696,5.98308011 12.7609761,5.98055491 12.2522696,5.97821008 L12.2522696,4.49068753 C12.7609761,4.48816233 13.2698674,4.48581751 13.7811609,4.48076711 C13.7837478,3.98420477 13.788737,3.48493687 13.7939109,2.98837454" id="Fill-4"></path>
                </g>
            </g>
        </g>
    </g>
</svg>