<?xml version="1.0" encoding="UTF-8" standalone="no"?>
<svg width="14px" height="12px" viewBox="0 0 14 12" version="1.1" xmlns="http://www.w3.org/2000/svg" xmlns:xlink="http://www.w3.org/1999/xlink">
    <!-- Generator: sketchtool 3.7 (28169) - http://www.bohemiancoding.com/sketch -->
    <title>CC5E45D0-AF9C-40A7-81E1-A482B8FA86DF</title>
    <desc>Created with sketchtool.</desc>
    <defs></defs>
    <g id="Page-1" stroke="none" stroke-width="1" fill="none" fill-rule="evenodd">
        <g id="Buttons" transform="translate(-116.000000, -854.000000)" fill="#007CB0">
            <g id="ShareIcon" transform="translate(116.000000, 854.000000)">
                <path d="M9.26298947,1.03944706 C9.02646316,1.14089804 8.78997562,1.24238824 8.55344931,1.34383922 C7.65679003,1.72842745 6.76047978,2.11395686 5.86265706,2.49587843 C5.79672909,2.52395686 5.72013629,2.53878039 5.6484687,2.53889804 C4.28147147,2.54136863 2.91451302,2.54074118 1.54755457,2.54074118 L1.41915014,2.54074118 C1.42997008,5.19156471 1.44071247,7.83274118 1.45149363,10.4745059 L9.7257651,10.4745059 C9.7257651,10.3540745 9.72723878,10.2476039 9.72545485,10.1412118 C9.72227479,9.95509412 9.73034127,9.76740784 9.70850748,9.58344706 C9.6913662,9.43889804 9.7453108,9.35999608 9.85312244,9.27803529 C10.2636211,8.96599608 10.6670615,8.64446667 11.0732166,8.32658431 C11.093344,8.31081961 11.1140532,8.29576078 11.1431391,8.27387843 C11.1479091,8.29525098 11.1537263,8.3090549 11.1536875,8.32281961 C11.1532609,9.06132941 11.1562083,9.79987843 11.1503911,10.5383098 C11.1446903,11.2632902 10.5782139,12.0005843 9.68671247,11.9995255 C6.94953795,11.9963098 4.21240222,11.9955255 1.4752277,11.9999961 C0.587294183,12.0014471 -0.00241218837,11.2680745 0.000108587257,10.4655255 C0.0048398892,8.95909412 0.00146592798,7.45262353 0.00146592798,5.94615294 C0.00146592798,4.81223137 -0.0028,3.67827059 0.00317229917,2.54434902 C0.00635235457,1.94556471 0.260795568,1.48258431 0.781316343,1.18195686 C0.991044875,1.06085882 1.22152133,1.01795686 1.46091745,1.01795686 C4.03327202,1.01787843 6.60562659,1.01787843 9.17801994,1.01815294 C9.20555457,1.01815294 9.23312798,1.02156471 9.26070139,1.02340784 C9.26147701,1.02874118 9.26221385,1.03407451 9.26298947,1.03944706" id="Fill-1"></path>
                <path d="M9.70127479,0.0370509804 C11.1189202,1.39007059 12.5365269,2.7430902 13.9616958,4.10328627 C12.5390476,5.45905098 11.1195795,6.81175686 9.67870416,8.18489412 L9.67870416,5.77646275 C8.60357396,5.77069804 7.57463213,5.95779608 6.57233296,6.30324706 C5.57142992,6.64818824 4.63525263,7.12383529 3.74976233,7.76587451 C3.78047701,7.60505098 3.80114737,7.46861961 3.83294792,7.33489412 C4.09452687,6.23426667 4.6176072,5.2761098 5.38272078,4.45281569 C6.13775125,3.64042353 7.05124155,3.07030588 8.07680942,2.67791373 C8.33594515,2.57877647 8.6010144,2.49383529 8.86724709,2.41591373 C9.13026094,2.33889412 9.3982,2.27901176 9.67653241,2.20842353 L9.67653241,0.0477960784 C9.6847928,0.044227451 9.6930144,0.0406196078 9.70127479,0.0370509804" id="Fill-4"></path>
            </g>
        </g>
    </g>
</svg>