<?xml version="1.0" encoding="UTF-8" standalone="no"?>
<svg width="19px" height="15px" viewBox="0 0 19 15" version="1.1" xmlns="http://www.w3.org/2000/svg" xmlns:xlink="http://www.w3.org/1999/xlink">
    <!-- Generator: sketchtool 3.6.1 (26313) - http://www.bohemiancoding.com/sketch -->
    <title>2DE40C66-DFC8-4CBF-A16D-B9C8EC3BD6AC</title>
    <desc>Created with sketchtool.</desc>
    <defs></defs>
    <g id="Page-1" stroke="none" stroke-width="1" fill="none" fill-rule="evenodd">
        <g id="PlayerControls-Copy" transform="translate(-118.000000, -468.000000)" fill="#FFFFFF">
            <g id="VolumeHigh" transform="translate(117.094037, 468.000000)">
                <path d="M9.90458947,0 L4.83376059,4.25955414 L0.908024057,4.25955414 L0.908024057,7.55645628 L0.905963303,7.55862768 L0.908024057,7.56079907 L0.908024057,10.8236827 L4.85368121,10.8236827 L9.90458947,15 L9.90458947,10.8236827 L9.9059633,10.8236827 L9.9059633,4.25955414 L9.90458947,4.25955414 L9.90458947,0 L9.90458947,0 Z M9.21286301,13.5010133 L5.28094422,10.2497105 L5.09272868,10.0940938 L1.60043743,10.0940938 L1.60043743,4.98914302 L5.07555573,4.98914302 L9.21286301,1.51418645 L9.21286301,4.25955414 L9.21354993,4.98914302 L9.21354993,10.0940938 L9.21286301,13.5010133 Z" id="Fill-11"></path>
                <path d="M11.9525426,4.37179036 C12.7509415,5.27110447 13.1723388,6.34215617 13.1723388,7.47045375 C13.1723388,8.6221421 12.7349298,9.71166022 11.9059633,10.6214386 L12.4874771,11 C13.4154247,9.98065424 13.9059633,8.76002462 13.9059633,7.47045375 C13.9059633,6.20673584 13.4336198,5.00703482 12.5391511,4 L11.9525426,4.37179036" id="Fill-12"></path>
                <path d="M14.4977483,2 L13.9059633,2.40456004 C15.3466327,3.84887718 16.139229,5.67884968 16.139229,7.55671402 C16.139229,9.41189276 15.4021601,11.1574244 14.0086509,12.603632 L14.6080424,13 C16.111085,11.4397342 16.9059633,9.55745875 16.9059633,7.55671402 C16.9059633,5.53139322 16.0509937,3.55837534 14.4977483,2" id="Fill-13"></path>
                <path d="M15.9059633,0.41625 C17.9970092,2.388125 19.1482507,4.924375 19.1482507,7.5575 C19.1482507,10.1375 18.0368888,12.635 16.0195826,14.59 L16.5944509,15 C18.7298911,12.930625 19.9059633,10.2875 19.9059633,7.5575 C19.9059633,4.77125 18.6877541,2.086875 16.4748121,0 L15.9059633,0.41625 Z" id="Fill-14"></path>
            </g>
        </g>
    </g>
</svg>
