<?xml version="1.0" encoding="UTF-8" standalone="no"?>
<svg width="16px" height="15px" viewBox="0 0 16 15" version="1.1" xmlns="http://www.w3.org/2000/svg" xmlns:xlink="http://www.w3.org/1999/xlink">
    <!-- Generator: sketchtool 3.7 (28169) - http://www.bohemiancoding.com/sketch -->
    <title>94D5FDA6-261D-4493-9C5E-B693B1FE16DF</title>
    <desc>Created with sketchtool.</desc>
    <defs></defs>
    <g id="Page-1" stroke="none" stroke-width="1" fill="none" fill-rule="evenodd">
        <g id="Buttons" transform="translate(-223.000000, -468.000000)" fill="#005B81">
            <g id="VolumeMidHover" transform="translate(223.000000, 468.000000)">
                <path d="M8.99862616,0 L3.92779728,4.25955414 L0.00206075408,4.25955414 L0.00206075408,7.55645628 L0,7.55862768 L0.00206075408,7.56079907 L0.00206075408,10.8236827 L3.94771791,10.8236827 L8.99862616,15 L8.99862616,10.8236827 L9,10.8236827 L9,4.25955414 L8.99862616,4.25955414 L8.99862616,0 L8.99862616,0 Z M8.30689971,13.5010133 L4.37498092,10.2497105 L4.18676538,10.0940938 L0.694474126,10.0940938 L0.694474126,4.98914302 L4.16959243,4.98914302 L8.30689971,1.51418645 L8.30689971,4.25955414 L8.30758663,4.98914302 L8.30758663,10.0940938 L8.30689971,13.5010133 Z" id="Fill-11"></path>
                <path d="M11.0465793,4.37179036 C11.8449782,5.27110447 12.2663755,6.34215617 12.2663755,7.47045375 C12.2663755,8.6221421 11.8289665,9.71166022 11,10.6214386 L11.5815138,11 C12.5094614,9.98065424 13,8.76002462 13,7.47045375 C13,6.20673584 12.5276565,5.00703482 11.6331878,4 L11.0465793,4.37179036" id="Fill-12"></path>
                <path d="M13.591785,2 L13,2.40456004 C14.4406694,3.84887718 15.2332657,5.67884968 15.2332657,7.55671402 C15.2332657,9.41189276 14.4961968,11.1574244 13.1026876,12.603632 L13.7020791,13 C15.2051217,11.4397342 16,9.55745875 16,7.55671402 C16,5.53139322 15.1450304,3.55837534 13.591785,2" id="Fill-13"></path>
            </g>
        </g>
    </g>
</svg>