<?xml version="1.0" encoding="utf-8"?>
<!-- Generator: Adobe Illustrator 16.0.0, SVG Export Plug-In . SVG Version: 6.00 Build 0)  -->
<!DOCTYPE svg PUBLIC "-//W3C//DTD SVG 1.1//EN" "http://www.w3.org/Graphics/SVG/1.1/DTD/svg11.dtd">
<svg version="1.1" id="Layer_1" xmlns="http://www.w3.org/2000/svg" xmlns:xlink="http://www.w3.org/1999/xlink" x="0px" y="0px"
	 width="568.286px" height="282.283px" viewBox="0 0 568.286 282.283" enable-background="new 0 0 568.286 282.283"
	 xml:space="preserve">
<g>
	<defs>
		<rect id="SVGID_1_" width="568.286" height="282.283"/>
	</defs>
	<clipPath id="SVGID_2_">
		<use xlink:href="#SVGID_1_"  overflow="visible"/>
	</clipPath>
	<g clip-path="url(#SVGID_2_)">
		<defs>
			<rect id="SVGID_3_" width="568.286" height="282.283"/>
		</defs>
		<clipPath id="SVGID_4_">
			<use xlink:href="#SVGID_3_"  overflow="visible"/>
		</clipPath>
		<g opacity="0" clip-path="url(#SVGID_4_)">
			<g>
				<defs>
					<rect id="SVGID_5_" x="0.555" y="0.553" width="567.178" height="281.177"/>
				</defs>
				<clipPath id="SVGID_6_">
					<use xlink:href="#SVGID_5_"  overflow="visible"/>
				</clipPath>
				<rect x="0.554" y="0.552" clip-path="url(#SVGID_6_)" fill="#F5F6F6" width="567.178" height="281.178"/>
			</g>
		</g>
	</g>
	<path clip-path="url(#SVGID_2_)" fill="#DCDBDB" d="M1.104,1.106h566.077v280.071H1.104V1.106z M0,282.283h568.286V0H0V282.283z"/>
	<rect x="95.378" y="19.095" clip-path="url(#SVGID_2_)" fill="#EAEAEA" width="98.841" height="210.874"/>
	<rect x="293.478" y="19.095" clip-path="url(#SVGID_2_)" fill="#EAEAEA" width="98.845" height="210.874"/>
	<rect x="491.055" y="19.095" clip-path="url(#SVGID_2_)" fill="#EAEAEA" width="52.324" height="210.874"/>
	<g clip-path="url(#SVGID_2_)">
		<defs>
			<rect id="SVGID_7_" width="568.286" height="282.283"/>
		</defs>
		<clipPath id="SVGID_8_">
			<use xlink:href="#SVGID_7_"  overflow="visible"/>
		</clipPath>
		<g clip-path="url(#SVGID_8_)">
			<g>
				<defs>
					<rect id="SVGID_9_" x="49.713" y="169.557" width="493.666" height="0.445"/>
				</defs>
				<clipPath id="SVGID_10_">
					<use xlink:href="#SVGID_9_"  overflow="visible"/>
				</clipPath>
				<rect x="49.713" y="169.558" clip-path="url(#SVGID_10_)" fill="#4D4E4F" width="493.666" height="0.444"/>
			</g>
		</g>
		<g clip-path="url(#SVGID_8_)">
			<g>
				<defs>
					<rect id="SVGID_11_" x="49.713" y="109.596" width="493.666" height="0.445"/>
				</defs>
				<clipPath id="SVGID_12_">
					<use xlink:href="#SVGID_11_"  overflow="visible"/>
				</clipPath>
				<rect x="49.713" y="109.596" clip-path="url(#SVGID_12_)" fill="#4D4E4F" width="493.666" height="0.445"/>
			</g>
		</g>
		<g clip-path="url(#SVGID_8_)">
			<g>
				<defs>
					<rect id="SVGID_13_" x="49.713" y="49.633" width="493.666" height="0.446"/>
				</defs>
				<clipPath id="SVGID_14_">
					<use xlink:href="#SVGID_13_"  overflow="visible"/>
				</clipPath>
				<rect x="49.713" y="49.634" clip-path="url(#SVGID_14_)" fill="#4D4E4F" width="493.666" height="0.445"/>
			</g>
		</g>
		<g clip-path="url(#SVGID_8_)">
			<g>
				<defs>
					<rect id="SVGID_15_" x="49.713" y="199.539" width="493.666" height="0.446"/>
				</defs>
				<clipPath id="SVGID_16_">
					<use xlink:href="#SVGID_15_"  overflow="visible"/>
				</clipPath>
				<rect x="49.713" y="199.539" clip-path="url(#SVGID_16_)" fill="#4D4E4F" width="493.666" height="0.446"/>
			</g>
		</g>
		<g clip-path="url(#SVGID_8_)">
			<g>
				<defs>
					<rect id="SVGID_17_" x="49.713" y="139.578" width="493.666" height="0.445"/>
				</defs>
				<clipPath id="SVGID_18_">
					<use xlink:href="#SVGID_17_"  overflow="visible"/>
				</clipPath>
				<rect x="49.713" y="139.578" clip-path="url(#SVGID_18_)" fill="#4D4E4F" width="493.666" height="0.445"/>
			</g>
		</g>
		<g clip-path="url(#SVGID_8_)">
			<g>
				<defs>
					<rect id="SVGID_19_" x="49.713" y="79.614" width="493.666" height="0.448"/>
				</defs>
				<clipPath id="SVGID_20_">
					<use xlink:href="#SVGID_19_"  overflow="visible"/>
				</clipPath>
				<rect x="49.713" y="79.614" clip-path="url(#SVGID_20_)" fill="#4D4E4F" width="493.666" height="0.448"/>
			</g>
		</g>
		<g clip-path="url(#SVGID_8_)">
			<g>
				<defs>
					<rect id="SVGID_21_" x="49.713" y="19.653" width="493.666" height="0.445"/>
				</defs>
				<clipPath id="SVGID_22_">
					<use xlink:href="#SVGID_21_"  overflow="visible"/>
				</clipPath>
				<rect x="49.713" y="19.653" clip-path="url(#SVGID_22_)" fill="#4D4E4F" width="493.666" height="0.445"/>
			</g>
		</g>
		<path clip-path="url(#SVGID_8_)" fill="#302F2D" d="M111.499,263.384h-10.781v-1.823l5.219-5.228
			c1.325-1.331,2.278-2.44,2.848-3.326c0.568-0.888,0.854-1.83,0.854-2.837c0-1.033-0.293-1.827-0.885-2.395
			c-0.589-0.567-1.43-0.849-2.519-0.849c-1.597,0-3.13,0.682-4.592,2.045v-2.147c1.393-1.084,3.024-1.631,4.875-1.631
			c1.597,0,2.857,0.433,3.767,1.299c0.913,0.864,1.376,2.022,1.376,3.479c0,1.15-0.318,2.271-0.946,3.361
			c-0.635,1.095-1.77,2.451-3.409,4.073l-4.129,4.082v0.052h8.322V263.384z"/>
		<path clip-path="url(#SVGID_8_)" fill="#302F2D" d="M125.655,258.626h-2.291v4.758h-2.025v-4.758h-8.411v-1.33l7.961-11.807h2.475
			v11.484h2.291V258.626z M121.339,256.974v-7.738c0-0.546,0.016-1.165,0.051-1.846h-0.051c-0.11,0.295-0.347,0.758-0.687,1.372
			l-5.499,8.212H121.339z"/>
		<path clip-path="url(#SVGID_8_)" fill="#302F2D" d="M128.075,259.712c-0.513,0-0.918-0.174-1.216-0.506
			c-0.305-0.333-0.453-0.778-0.453-1.336c0-0.606,0.155-1.091,0.481-1.442c0.315-0.349,0.742-0.528,1.285-0.528
			c0.523,0,0.928,0.169,1.222,0.488c0.288,0.329,0.432,0.788,0.432,1.372c0,0.592-0.163,1.062-0.484,1.416
			C129.019,259.534,128.594,259.712,128.075,259.712 M128.145,256.469c-0.33,0-0.586,0.123-0.775,0.364
			c-0.186,0.237-0.282,0.57-0.282,0.991c0,0.413,0.096,0.738,0.28,0.971c0.183,0.231,0.433,0.346,0.756,0.346
			c0.319,0,0.572-0.12,0.753-0.361c0.181-0.243,0.272-0.57,0.272-0.995c0-0.413-0.087-0.736-0.269-0.969
			C128.7,256.585,128.45,256.469,128.145,256.469 M132.999,256.015l-4.728,7.419h-0.729l4.714-7.419H132.999z M132.459,263.495
			c-0.513,0-0.913-0.169-1.215-0.505c-0.301-0.336-0.453-0.778-0.453-1.336c0-0.607,0.155-1.092,0.483-1.445
			c0.322-0.354,0.751-0.533,1.281-0.533c0.521,0,0.926,0.167,1.218,0.493c0.293,0.329,0.437,0.792,0.437,1.385
			c0,0.585-0.157,1.057-0.483,1.408C133.405,263.319,132.979,263.495,132.459,263.495 M132.524,260.259
			c-0.329,0-0.587,0.121-0.769,0.361c-0.187,0.24-0.283,0.572-0.283,0.998c0,0.405,0.096,0.723,0.283,0.953
			c0.18,0.232,0.428,0.347,0.75,0.347c0.327,0,0.575-0.12,0.756-0.361c0.187-0.24,0.27-0.572,0.27-0.992
			c0-0.425-0.083-0.742-0.263-0.968C133.087,260.37,132.838,260.259,132.524,260.259"/>
		<path clip-path="url(#SVGID_8_)" fill="#302F2D" d="M212.084,258.598h-2.311v4.782h-2.033v-4.782h-8.46v-1.344l8.009-11.872h2.484
			v11.55h2.311V258.598z M207.74,256.932v-7.786c0-0.553,0.017-1.172,0.052-1.855h-0.052c-0.119,0.301-0.345,0.763-0.694,1.381
			l-5.532,8.261H207.74z"/>
		<path clip-path="url(#SVGID_8_)" fill="#302F2D" d="M224.469,263.38h-10.842v-1.834l5.249-5.259
			c1.339-1.335,2.291-2.448,2.869-3.344c0.572-0.888,0.857-1.843,0.857-2.853c0-1.037-0.3-1.844-0.893-2.413
			c-0.595-0.571-1.44-0.853-2.535-0.853c-1.607,0-3.145,0.687-4.62,2.053v-2.152c1.406-1.097,3.043-1.645,4.909-1.645
			c1.608,0,2.868,0.433,3.793,1.303c0.92,0.876,1.375,2.038,1.375,3.503c0,1.156-0.314,2.284-0.957,3.388
			c-0.628,1.1-1.768,2.464-3.418,4.097l-4.159,4.104v0.05h8.372V263.38z"/>
		<path clip-path="url(#SVGID_8_)" fill="#302F2D" d="M227.828,259.687c-0.511,0-0.918-0.17-1.222-0.502
			c-0.301-0.341-0.454-0.789-0.454-1.352c0-0.615,0.16-1.092,0.481-1.448c0.321-0.354,0.754-0.531,1.3-0.531
			c0.523,0,0.936,0.161,1.226,0.495c0.291,0.328,0.431,0.784,0.431,1.377c0,0.595-0.158,1.069-0.483,1.426
			C228.781,259.51,228.354,259.687,227.828,259.687 M227.896,256.425c-0.32,0-0.585,0.121-0.773,0.365
			c-0.191,0.241-0.286,0.574-0.286,0.999c0,0.42,0.095,0.74,0.282,0.97c0.181,0.238,0.438,0.354,0.76,0.354
			c0.321,0,0.577-0.122,0.758-0.366c0.185-0.237,0.275-0.574,0.275-1c0-0.419-0.087-0.739-0.273-0.976
			C228.458,256.54,228.213,256.425,227.896,256.425 M232.787,255.969l-4.753,7.464h-0.738l4.747-7.464H232.787z M232.241,263.495
			c-0.51,0-0.917-0.169-1.219-0.509c-0.31-0.335-0.458-0.783-0.458-1.343c0-0.613,0.163-1.096,0.485-1.456
			c0.328-0.357,0.754-0.529,1.292-0.529c0.525,0,0.933,0.162,1.225,0.493c0.293,0.329,0.439,0.795,0.439,1.389
			c0,0.592-0.161,1.061-0.486,1.422C233.193,263.315,232.768,263.495,232.241,263.495 M232.313,260.238
			c-0.332,0-0.593,0.124-0.778,0.361c-0.19,0.241-0.282,0.576-0.282,1.005c0,0.412,0.092,0.729,0.282,0.965
			c0.182,0.229,0.438,0.349,0.757,0.349c0.33,0,0.578-0.123,0.757-0.368c0.189-0.247,0.277-0.573,0.277-0.997
			c0-0.423-0.088-0.744-0.273-0.975C232.874,260.345,232.626,260.238,232.313,260.238"/>
		<polygon clip-path="url(#SVGID_8_)" fill="#302F2D" points="409.701,245.904 402.596,263.192 400.468,263.192 407.191,247.106 
			398.145,247.106 398.145,245.257 409.701,245.257 		"/>
		<path clip-path="url(#SVGID_8_)" fill="#302F2D" d="M412.492,262.894v-1.976c1.005,0.567,2.061,0.853,3.179,0.853
			c1.624,0,2.891-0.657,3.794-1.965c0.907-1.31,1.363-3.172,1.363-5.58c-0.02,0.011-0.041,0.011-0.051,0
			c-0.771,1.542-2.108,2.314-4.005,2.314c-1.535,0-2.795-0.525-3.778-1.563c-0.986-1.043-1.479-2.384-1.479-4.027
			c0-1.756,0.539-3.192,1.624-4.315c1.079-1.121,2.462-1.681,4.141-1.681c1.771,0,3.152,0.695,4.14,2.096
			c0.988,1.396,1.481,3.432,1.481,6.101c0,3.311-0.646,5.861-1.931,7.652c-1.285,1.798-3.066,2.692-5.352,2.692
			C414.417,263.495,413.373,263.294,412.492,262.894 M417.097,246.696c-0.994,0-1.82,0.371-2.483,1.119
			c-0.666,0.744-0.995,1.693-0.995,2.846c0,1.257,0.322,2.246,0.977,2.968c0.645,0.724,1.531,1.084,2.639,1.084
			c0.969,0,1.789-0.331,2.461-0.989c0.665-0.658,1.007-1.459,1.007-2.413c0-1.36-0.336-2.47-1.005-3.33
			C419.031,247.121,418.165,246.696,417.097,246.696"/>
		<path clip-path="url(#SVGID_8_)" fill="#302F2D" d="M425.697,259.513c-0.511,0-0.918-0.17-1.219-0.501
			c-0.303-0.338-0.45-0.781-0.45-1.346c0-0.61,0.158-1.09,0.479-1.442c0.313-0.354,0.748-0.528,1.289-0.528
			c0.531,0,0.937,0.158,1.229,0.487c0.285,0.33,0.434,0.783,0.434,1.375s-0.162,1.063-0.487,1.416
			C426.645,259.336,426.223,259.513,425.697,259.513 M425.765,256.262c-0.322,0-0.582,0.12-0.77,0.365
			c-0.188,0.237-0.286,0.569-0.286,0.996c0,0.411,0.098,0.735,0.282,0.968c0.183,0.23,0.435,0.352,0.759,0.352
			c0.318,0,0.575-0.121,0.755-0.361c0.185-0.243,0.267-0.579,0.267-1c0-0.419-0.082-0.736-0.26-0.977
			C426.331,256.373,426.078,256.262,425.765,256.262 M430.64,255.808l-4.743,7.439h-0.729l4.729-7.439H430.64z M430.092,263.309
			c-0.504,0-0.909-0.169-1.215-0.505c-0.3-0.333-0.447-0.787-0.447-1.336c0-0.615,0.153-1.1,0.484-1.453
			c0.32-0.354,0.752-0.534,1.285-0.534c0.52,0,0.928,0.165,1.224,0.494c0.289,0.329,0.429,0.791,0.429,1.388
			c0,0.59-0.157,1.059-0.479,1.41C431.044,263.128,430.619,263.309,430.092,263.309 M430.166,260.062
			c-0.327,0-0.588,0.123-0.774,0.36c-0.187,0.241-0.28,0.573-0.28,1.001c0,0.413,0.092,0.73,0.273,0.961
			c0.193,0.231,0.438,0.346,0.759,0.346c0.323,0,0.575-0.121,0.758-0.364c0.183-0.241,0.276-0.574,0.276-0.996
			c0-0.416-0.094-0.739-0.271-0.97C430.727,260.174,430.48,260.062,430.166,260.062"/>
		<path clip-path="url(#SVGID_8_)" fill="#302F2D" d="M306.629,262.894v-1.976c1,0.567,2.055,0.853,3.175,0.853
			c1.63,0,2.893-0.657,3.796-1.965c0.907-1.312,1.359-3.172,1.359-5.58c-0.016,0.004-0.035,0.004-0.052,0
			c-0.767,1.542-2.102,2.314-4,2.314c-1.537,0-2.794-0.525-3.782-1.566c-0.979-1.039-1.471-2.385-1.471-4.027
			c0-1.752,0.537-3.188,1.618-4.312c1.08-1.121,2.464-1.681,4.146-1.681c1.769,0,3.149,0.695,4.136,2.096
			c0.987,1.395,1.483,3.432,1.483,6.101c0,3.311-0.644,5.861-1.929,7.652c-1.287,1.794-3.07,2.692-5.353,2.692
			C308.559,263.495,307.515,263.294,306.629,262.894 M311.233,246.696c-0.997,0-1.823,0.367-2.487,1.119
			c-0.658,0.744-0.993,1.693-0.993,2.846c0,1.257,0.327,2.246,0.979,2.968c0.649,0.724,1.531,1.084,2.639,1.084
			c0.961,0,1.789-0.331,2.457-0.989c0.671-0.658,1.008-1.467,1.008-2.417c0-1.356-0.334-2.466-1.002-3.326
			C313.167,247.121,312.3,246.696,311.233,246.696"/>
		<path clip-path="url(#SVGID_8_)" fill="#302F2D" d="M319.832,259.513c-0.508,0-0.914-0.17-1.215-0.506
			c-0.305-0.333-0.453-0.776-0.453-1.341c0-0.61,0.156-1.09,0.473-1.442c0.325-0.354,0.755-0.528,1.296-0.528
			c0.525,0,0.932,0.158,1.222,0.487c0.293,0.33,0.438,0.783,0.438,1.375c0,0.59-0.159,1.063-0.489,1.416
			C320.777,259.336,320.353,259.513,319.832,259.513 M319.906,256.257c-0.329,0-0.582,0.125-0.775,0.37
			c-0.189,0.237-0.285,0.569-0.285,0.996c0,0.411,0.091,0.735,0.279,0.968c0.187,0.23,0.439,0.35,0.758,0.35
			c0.322,0,0.575-0.123,0.756-0.359c0.183-0.243,0.273-0.579,0.273-1c0-0.419-0.091-0.736-0.272-0.977
			C320.46,256.373,320.213,256.257,319.906,256.257 M324.774,255.804l-4.741,7.443h-0.734l4.737-7.443H324.774z M324.232,263.309
			c-0.514,0-0.919-0.169-1.215-0.505c-0.304-0.333-0.459-0.787-0.459-1.343c0-0.608,0.167-1.093,0.488-1.446
			c0.322-0.354,0.75-0.534,1.287-0.534c0.519,0,0.926,0.162,1.224,0.491c0.289,0.332,0.436,0.794,0.436,1.391
			c0,0.584-0.165,1.059-0.487,1.41C325.182,263.128,324.755,263.309,324.232,263.309 M324.304,260.062
			c-0.333,0-0.59,0.123-0.776,0.36c-0.189,0.241-0.282,0.573-0.282,1.001c0,0.413,0.093,0.73,0.278,0.961
			c0.19,0.231,0.437,0.346,0.763,0.346c0.318,0,0.57-0.121,0.755-0.364c0.18-0.241,0.271-0.574,0.271-0.996
			c0-0.416-0.092-0.739-0.271-0.97C324.865,260.174,324.618,260.062,324.304,260.062"/>
		<path clip-path="url(#SVGID_8_)" fill="#302F2D" d="M498.498,262.894v-1.976c1.001,0.567,2.058,0.853,3.181,0.853
			c1.624,0,2.889-0.657,3.794-1.97c0.906-1.307,1.357-3.167,1.357-5.58c-0.017,0.009-0.031,0.009-0.051,0
			c-0.77,1.547-2.1,2.319-4.001,2.319c-1.537,0-2.792-0.525-3.783-1.566c-0.981-1.039-1.472-2.386-1.472-4.027
			c0-1.752,0.542-3.189,1.622-4.316c1.077-1.116,2.459-1.679,4.142-1.679c1.773,0,3.15,0.698,4.141,2.098
			c0.99,1.396,1.475,3.424,1.475,6.097c0,3.311-0.638,5.86-1.923,7.655c-1.288,1.795-3.066,2.694-5.354,2.694
			C500.423,263.495,499.381,263.294,498.498,262.894 M503.103,246.692c-0.991,0-1.82,0.371-2.487,1.119
			c-0.659,0.748-0.988,1.697-0.988,2.85c0,1.257,0.32,2.246,0.974,2.968c0.648,0.724,1.531,1.083,2.641,1.083
			c0.966,0,1.787-0.331,2.459-0.988c0.667-0.658,1.007-1.468,1.007-2.417c0-1.356-0.336-2.467-1.002-3.326
			C505.037,247.121,504.169,246.692,503.103,246.692"/>
		<path clip-path="url(#SVGID_8_)" fill="#302F2D" d="M524.671,259.513c-0.511,0-0.915-0.17-1.216-0.506
			c-0.305-0.336-0.456-0.785-0.456-1.341c0-0.61,0.163-1.09,0.48-1.449c0.325-0.348,0.753-0.525,1.293-0.525
			c0.528,0,0.936,0.162,1.222,0.488c0.295,0.327,0.439,0.786,0.439,1.378c0,0.59-0.163,1.063-0.487,1.416
			C525.619,259.329,525.195,259.513,524.671,259.513 M524.747,256.257c-0.33,0-0.587,0.125-0.776,0.365
			c-0.192,0.242-0.279,0.574-0.279,0.994c0,0.416,0.087,0.74,0.274,0.975c0.187,0.23,0.435,0.35,0.757,0.35
			c0.32,0,0.572-0.127,0.756-0.365c0.184-0.237,0.271-0.573,0.271-0.998c0-0.415-0.088-0.74-0.266-0.973
			C525.302,256.373,525.055,256.257,524.747,256.257 M529.615,255.804l-4.742,7.443h-0.732l4.733-7.443H529.615z M529.07,263.309
			c-0.513,0-0.913-0.169-1.218-0.505c-0.299-0.333-0.451-0.787-0.451-1.343c0-0.608,0.162-1.093,0.484-1.453
			c0.321-0.348,0.75-0.527,1.29-0.527c0.519,0,0.923,0.162,1.219,0.491c0.289,0.332,0.44,0.794,0.44,1.387
			c0,0.588-0.166,1.063-0.487,1.414C530.021,263.128,529.597,263.309,529.07,263.309 M529.139,260.062
			c-0.325,0-0.585,0.119-0.771,0.36c-0.186,0.241-0.283,0.573-0.283,0.997c0,0.409,0.098,0.734,0.283,0.965
			c0.187,0.231,0.432,0.346,0.757,0.346c0.319,0,0.57-0.121,0.758-0.366c0.181-0.239,0.268-0.572,0.268-0.994
			c0-0.416-0.082-0.739-0.268-0.97C529.701,260.174,529.456,260.062,529.139,260.062"/>
		<path clip-path="url(#SVGID_8_)" fill="#302F2D" d="M521.175,263.374h-10.849v-1.834l5.252-5.26
			c1.336-1.34,2.289-2.456,2.863-3.346c0.576-0.891,0.861-1.841,0.861-2.851c0-1.04-0.3-1.842-0.891-2.413
			c-0.59-0.571-1.44-0.856-2.539-0.856c-1.6,0-3.146,0.687-4.614,2.059v-2.156c1.407-1.098,3.039-1.643,4.903-1.643
			c1.613,0,2.875,0.435,3.796,1.303c0.917,0.868,1.378,2.038,1.378,3.504c0,1.155-0.32,2.283-0.951,3.38
			c-0.64,1.102-1.778,2.472-3.428,4.1l-4.153,4.107v0.049h8.371V263.374z"/>
		<rect x="50.035" y="235.371" clip-path="url(#SVGID_8_)" fill="#302F2D" width="493.344" height="0.439"/>
		<rect x="95.15" y="235.37" clip-path="url(#SVGID_8_)" fill="#302F2D" width="0.44" height="30.066"/>
		<rect x="194.218" y="235.37" clip-path="url(#SVGID_8_)" fill="#302F2D" width="0.437" height="30.066"/>
		<rect x="293.262" y="235.37" clip-path="url(#SVGID_8_)" fill="#302F2D" width="0.439" height="30.066"/>
		<rect x="392.303" y="235.37" clip-path="url(#SVGID_8_)" fill="#302F2D" width="0.445" height="30.066"/>
		<rect x="491.348" y="235.37" clip-path="url(#SVGID_8_)" fill="#302F2D" width="0.439" height="30.066"/>
		<path clip-path="url(#SVGID_8_)" fill="#302F2D" d="M97.564,235.59c0,1.198-0.967,2.171-2.169,2.171
			c-1.2,0-2.171-0.973-2.171-2.171c0-1.194,0.971-2.17,2.171-2.17C96.597,233.42,97.564,234.396,97.564,235.59"/>
		<path clip-path="url(#SVGID_8_)" fill="#302F2D" d="M196.61,235.59c0,1.198-0.973,2.171-2.171,2.171
			c-1.198,0-2.172-0.973-2.172-2.171c0-1.194,0.974-2.17,2.172-2.17C195.637,233.42,196.61,234.396,196.61,235.59"/>
		<path clip-path="url(#SVGID_8_)" fill="#302F2D" d="M295.653,235.59c0,1.198-0.975,2.171-2.175,2.171
			c-1.194,0-2.168-0.973-2.168-2.171c0-1.194,0.974-2.17,2.168-2.17C294.679,233.42,295.653,234.396,295.653,235.59"/>
		<path clip-path="url(#SVGID_8_)" fill="#302F2D" d="M394.695,235.59c0,1.198-0.972,2.171-2.171,2.171
			c-1.198,0-2.172-0.973-2.172-2.171c0-1.194,0.974-2.17,2.172-2.17C393.724,233.42,394.695,234.396,394.695,235.59"/>
		<path clip-path="url(#SVGID_8_)" fill="#302F2D" d="M493.738,235.59c0,1.198-0.967,2.171-2.17,2.171
			c-1.198,0-2.17-0.973-2.17-2.171c0-1.194,0.972-2.17,2.17-2.17C492.771,233.42,493.738,234.396,493.738,235.59"/>
		<g clip-path="url(#SVGID_8_)">
			<g>
				<defs>
					<rect id="SVGID_23_" x="58.164" y="181.38" width="77.704" height="48.385"/>
				</defs>
				<clipPath id="SVGID_24_">
					<use xlink:href="#SVGID_23_"  overflow="visible"/>
				</clipPath>
				<rect x="58.164" y="181.379" clip-path="url(#SVGID_24_)" fill="#39C0C4" width="77.704" height="48.386"/>
			</g>
		</g>
		<g clip-path="url(#SVGID_8_)">
			<g>
				<defs>
					<rect id="SVGID_25_" x="156.698" y="132.798" width="77.702" height="96.966"/>
				</defs>
				<clipPath id="SVGID_26_">
					<use xlink:href="#SVGID_25_"  overflow="visible"/>
				</clipPath>
				<rect x="156.698" y="132.797" clip-path="url(#SVGID_26_)" fill="#39C0C4" width="77.702" height="96.967"/>
			</g>
		</g>
		<g clip-path="url(#SVGID_8_)">
			<g>
				<defs>
					<rect id="SVGID_27_" x="255.21" y="213.771" width="77.697" height="15.994"/>
				</defs>
				<clipPath id="SVGID_28_">
					<use xlink:href="#SVGID_27_"  overflow="visible"/>
				</clipPath>
				<rect x="255.21" y="213.771" clip-path="url(#SVGID_28_)" fill="#39C0C4" width="77.697" height="15.994"/>
			</g>
		</g>
		<g clip-path="url(#SVGID_8_)">
			<g>
				<defs>
					<rect id="SVGID_29_" x="353.574" y="82.265" width="77.699" height="147.961"/>
				</defs>
				<clipPath id="SVGID_30_">
					<use xlink:href="#SVGID_29_"  overflow="visible"/>
				</clipPath>
				<rect x="353.574" y="82.265" clip-path="url(#SVGID_30_)" fill="#39C0C4" width="77.699" height="147.961"/>
			</g>
		</g>
		<g clip-path="url(#SVGID_8_)">
			<g>
				<defs>
					<rect id="SVGID_31_" x="452.22" y="44.694" width="77.702" height="185.532"/>
				</defs>
				<clipPath id="SVGID_32_">
					<use xlink:href="#SVGID_31_"  overflow="visible"/>
				</clipPath>
				<rect x="452.22" y="44.694" clip-path="url(#SVGID_32_)" fill="#39C0C4" width="77.702" height="185.532"/>
			</g>
		</g>
	</g>
	<g clip-path="url(#SVGID_2_)">
		<path fill="#302F2D" d="M43.338,236.837c0,3.119-1.157,4.841-3.19,4.841c-1.792,0-3.006-1.68-3.034-4.714
			c0-3.077,1.327-4.771,3.189-4.771C42.237,232.192,43.338,233.915,43.338,236.837z M38.355,236.978c0,2.386,0.734,3.74,1.863,3.74
			c1.271,0,1.877-1.481,1.877-3.825c0-2.258-0.579-3.74-1.863-3.74C39.146,233.152,38.355,234.479,38.355,236.978z"/>
	</g>
	<g clip-path="url(#SVGID_2_)">
		<path fill="#302F2D" d="M37.241,175.413v-0.762l0.974-0.946c2.343-2.229,3.402-3.415,3.416-4.799c0-0.932-0.452-1.792-1.821-1.792
			c-0.833,0-1.524,0.423-1.948,0.775l-0.396-0.875c0.635-0.536,1.539-0.932,2.597-0.932c1.976,0,2.809,1.355,2.809,2.668
			c0,1.694-1.228,3.063-3.162,4.926l-0.734,0.678v0.028h4.122v1.03H37.241z"/>
	</g>
	<g clip-path="url(#SVGID_2_)">
		<path fill="#302F2D" d="M41.08,115.092v-2.498h-4.262v-0.819l4.093-5.857h1.341v5.702h1.285v0.974h-1.285v2.498H41.08z
			 M41.08,111.62v-3.063c0-0.479,0.014-0.959,0.042-1.439H41.08c-0.282,0.536-0.508,0.932-0.762,1.355l-2.244,3.119v0.028H41.08z"/>
	</g>
	<g clip-path="url(#SVGID_2_)">
		<path fill="#302F2D" d="M20.47,148.148l-8.155,2.068v-1.113l4.126-0.968c1.017-0.242,2.033-0.46,2.819-0.604v-0.025
			c-0.811-0.133-1.778-0.387-2.831-0.665l-4.114-1.089v-1.102l4.138-0.992c0.969-0.229,1.937-0.447,2.796-0.568v-0.023
			c-0.896-0.17-1.804-0.4-2.819-0.654l-4.114-1.076v-1.078l8.155,2.312v1.101l-4.247,1.028c-1.041,0.254-1.839,0.424-2.662,0.532
			v0.024c0.811,0.145,1.609,0.326,2.662,0.629l4.247,1.162V148.148z"/>
		<path fill="#302F2D" d="M16.646,135.017v3.17h2.939v-3.533h0.884v4.586h-8.155v-4.405h0.883v3.352h2.577v-3.17H16.646z"/>
		<path fill="#302F2D" d="M16.646,129.063v3.17h2.939V128.7h0.884v4.586h-8.155v-4.405h0.883v3.352h2.577v-3.17H16.646z"/>
		<path fill="#302F2D" d="M12.314,127.331v-1.053h3.933v-0.037c-0.314-0.218-0.605-0.436-0.871-0.641l-3.062-2.493v-1.307
			l3.46,2.952l4.695-3.182v1.246l-4.005,2.687l0.896,0.774h3.109v1.053H12.314z"/>
		<path fill="#302F2D" d="M19.188,120.917c0.29-0.472,0.532-1.162,0.532-1.888c0-1.077-0.569-1.706-1.392-1.706
			c-0.763,0-1.198,0.436-1.621,1.537c-0.473,1.331-1.162,2.154-2.312,2.154c-1.271,0-2.215-1.053-2.215-2.638
			c0-0.835,0.194-1.44,0.399-1.803l0.859,0.29c-0.146,0.266-0.387,0.811-0.387,1.549c0,1.113,0.665,1.537,1.222,1.537
			c0.763,0,1.138-0.496,1.573-1.621c0.532-1.379,1.197-2.082,2.396-2.082c1.259,0,2.348,0.932,2.348,2.856
			c0,0.787-0.23,1.646-0.521,2.081L19.188,120.917z"/>
	</g>
	<g clip-path="url(#SVGID_2_)">
		<path fill="#302F2D" d="M42.477,46.481c-0.254-0.014-0.579,0-0.932,0.057c-1.948,0.325-2.978,1.75-3.19,3.26h0.042
			c0.438-0.579,1.2-1.059,2.216-1.059c1.624,0,2.767,1.171,2.767,2.964c0,1.68-1.143,3.232-3.049,3.232
			c-1.962,0-3.246-1.524-3.246-3.91c0-1.807,0.649-3.232,1.552-4.136c0.762-0.748,1.779-1.214,2.936-1.355
			c0.367-0.056,0.677-0.07,0.903-0.07V46.481z M42.124,51.774c0-1.313-0.748-2.103-1.891-2.103c-0.748,0-1.44,0.466-1.778,1.129
			c-0.085,0.142-0.141,0.325-0.141,0.551c0.028,1.51,0.72,2.625,2.018,2.625C41.404,53.976,42.124,53.086,42.124,51.774z"/>
	</g>
</g>
</svg>
