<?xml version="1.0" encoding="utf-8"?>
<!-- Generator: Adobe Illustrator 16.0.0, SVG Export Plug-In . SVG Version: 6.00 Build 0)  -->
<!DOCTYPE svg PUBLIC "-//W3C//DTD SVG 1.1//EN" "http://www.w3.org/Graphics/SVG/1.1/DTD/svg11.dtd">
<svg version="1.1" id="Layer_1" xmlns="http://www.w3.org/2000/svg" xmlns:xlink="http://www.w3.org/1999/xlink" x="0px" y="0px"
	 width="230.67px" height="220.667px" viewBox="0 0 230.67 220.667" enable-background="new 0 0 230.67 220.667"
	 xml:space="preserve">
<g>
	<defs>
		<rect id="SVGID_1_" width="230.67" height="220.667"/>
	</defs>
	<clipPath id="SVGID_2_">
		<use xlink:href="#SVGID_1_"  overflow="visible"/>
	</clipPath>
	<path clip-path="url(#SVGID_2_)" fill="none" stroke="#fff" stroke-width="10" d="M167.667,195.001v15.666c0,2.75-2.25,5-5,5H10
		c-2.75,0-5-2.25-5-5V10c0-2.75,2.25-5,5-5h113.003l44.664,46.058v23.608"/>
	<path clip-path="url(#SVGID_2_)" fill="#fff" d="M165.882,52.667h-41.431c-2.998,0-5.451-2.453-5.451-5.451V5.785
		c0-2.998,2.453-5.451,5.451-5.451l46.882,46.882C171.333,50.214,168.88,52.667,165.882,52.667"/>
	<path clip-path="url(#SVGID_2_)" fill="none" stroke="#fff" stroke-width="10" d="M220.67,180.445H53.262c-2.75,0-5-2.25-5-5
		V94.248c0-2.75,2.25-5,5-5H220.67c2.75,0,5,2.25,5,5v81.198C225.67,178.195,223.42,180.445,220.67,180.445z"/>
	<path clip-path="url(#SVGID_2_)" fill="#fff" d="M80.49,156.832v-42.013h19.652c9.134,0,14.11,6.172,14.11,13.542
		c0,7.307-5.039,13.543-14.11,13.543H89.434v14.928H80.49z M105.119,128.361c0-3.527-2.646-5.669-6.173-5.669h-9.512v11.338h9.512
		C102.473,134.03,105.119,131.826,105.119,128.361"/>
	<path clip-path="url(#SVGID_2_)" fill="#fff" d="M119.795,156.832v-42.014h16.566c13.164,0,22.297,8.378,22.297,21.039
		c0,12.66-9.133,20.975-22.297,20.975H119.795z M149.525,135.857c0-7.435-4.535-13.165-13.164-13.165h-7.622v26.267h7.622
		C144.676,148.959,149.525,142.974,149.525,135.857"/>
	<polygon clip-path="url(#SVGID_2_)" fill="#fff" points="165.021,156.832 165.021,114.818 194.75,114.818 194.75,122.691
		173.965,122.691 173.965,131.573 194.311,131.573 194.311,139.446 173.965,139.446 173.965,156.832 	"/>
</g>
</svg>
